<?xml version="1.0" encoding="utf-8"?>
<!-- Generator: Adobe Illustrator 23.0.6, SVG Export Plug-In . SVG Version: 6.00 Build 0)  -->
<svg version="1.1" id="Ebene_1" xmlns="http://www.w3.org/2000/svg" xmlns:xlink="http://www.w3.org/1999/xlink" x="0px" y="0px"
	 viewBox="0 0 463 71.8" style="enable-background:new 0 0 463 71.8;" xml:space="preserve">
<style type="text/css">
	.st0{fill:#FFFFFF;}
</style>
<g>
	<path class="st0" d="M9.4,62.9C6,59.5,4.3,55.1,4.3,49.6V22.1c0-5.6,1.7-10,5.1-13.3c3.4-3.3,7.9-4.9,13.6-4.9
		c5.7,0,10.2,1.6,13.6,4.9c3.4,3.3,5.1,7.7,5.1,13.3V23c0,0.3-0.1,0.6-0.3,0.8c-0.2,0.2-0.5,0.3-0.8,0.3l-12.7,0.5
		c-0.7,0-1.1-0.4-1.1-1.1v-2.4c0-1.4-0.4-2.5-1.1-3.3c-0.7-0.8-1.7-1.2-2.9-1.2c-1.1,0-2.1,0.4-2.8,1.2c-0.7,0.8-1.1,1.9-1.1,3.3
		v29.7c0,1.3,0.4,2.4,1.1,3.2c0.7,0.8,1.6,1.2,2.8,1.2c1.2,0,2.1-0.4,2.9-1.2c0.7-0.8,1.1-1.9,1.1-3.2v-2.6c0-0.3,0.1-0.6,0.3-0.8
		c0.2-0.2,0.5-0.3,0.8-0.3l12.7,0.5c0.3,0,0.6,0.1,0.8,0.3c0.2,0.2,0.3,0.5,0.3,0.8v0.8c0,5.5-1.7,10-5.1,13.3c-3.4,3.3-8,5-13.6,5
		C17.3,67.9,12.8,66.2,9.4,62.9z"/>
	<path class="st0" d="M49.6,62.9c-3.4-3.3-5.1-7.8-5.1-13.5v-27c0-5.6,1.7-10.1,5.1-13.4c3.4-3.4,8-5,13.8-5c5.7,0,10.3,1.7,13.8,5
		c3.5,3.4,5.2,7.8,5.2,13.4v27c0,5.7-1.7,10.2-5.2,13.5c-3.5,3.3-8.1,5-13.8,5C57.6,67.9,53,66.2,49.6,62.9z M66.5,53.8
		c0.7-0.9,1.1-2.2,1.1-3.8V21.8c0-1.6-0.4-2.9-1.1-3.8c-0.7-0.9-1.8-1.4-3.1-1.4c-1.3,0-2.3,0.5-3,1.4c-0.7,0.9-1.1,2.2-1.1,3.8V50
		c0,1.6,0.4,2.9,1.1,3.8c0.7,0.9,1.7,1.4,3,1.4C64.7,55.2,65.7,54.7,66.5,53.8z"/>
	<path class="st0" d="M112.2,5c0.2-0.2,0.5-0.3,0.8-0.3h12.5c0.3,0,0.5,0.1,0.8,0.3c0.2,0.2,0.3,0.5,0.3,0.8v60.4
		c0,0.3-0.1,0.6-0.3,0.8c-0.2,0.2-0.5,0.3-0.8,0.3h-14.2c-0.7,0-1.1-0.3-1.3-0.9l-8.8-31.1c-0.1-0.2-0.2-0.3-0.3-0.3
		c-0.1,0-0.2,0.1-0.2,0.3l0.2,30.9c0,0.3-0.1,0.6-0.3,0.8c-0.2,0.2-0.5,0.3-0.8,0.3H87.2c-0.3,0-0.6-0.1-0.8-0.3
		c-0.2-0.2-0.3-0.5-0.3-0.8V5.7c0-0.3,0.1-0.5,0.3-0.8c0.2-0.2,0.5-0.3,0.8-0.3h14c0.7,0,1.1,0.3,1.3,0.9l8.9,31.3
		c0.1,0.2,0.2,0.3,0.3,0.3c0.1,0,0.2-0.1,0.2-0.4l-0.1-31C111.9,5.4,112,5.2,112.2,5z"/>
	<path class="st0" d="M166.8,17c-0.2,0.2-0.5,0.3-0.8,0.3h-18c-0.3,0-0.4,0.1-0.4,0.4V29c0,0.3,0.1,0.4,0.4,0.4h9.8
		c0.3,0,0.6,0.1,0.8,0.3c0.2,0.2,0.3,0.5,0.3,0.8v10.6c0,0.3-0.1,0.6-0.3,0.8c-0.2,0.2-0.5,0.3-0.8,0.3h-9.8c-0.3,0-0.4,0.1-0.4,0.4
		v23.4c0,0.3-0.1,0.6-0.3,0.8c-0.2,0.2-0.5,0.3-0.8,0.3h-12.7c-0.3,0-0.6-0.1-0.8-0.3c-0.2-0.2-0.3-0.5-0.3-0.8V5.7
		c0-0.3,0.1-0.5,0.3-0.8c0.2-0.2,0.5-0.3,0.8-0.3H166c0.3,0,0.6,0.1,0.8,0.3c0.2,0.2,0.3,0.5,0.3,0.8v10.5
		C167.1,16.6,167,16.8,166.8,17z"/>
	<path class="st0" d="M204.9,17c-0.2,0.2-0.5,0.3-0.8,0.3h-18c-0.3,0-0.4,0.1-0.4,0.4V29c0,0.3,0.1,0.4,0.4,0.4h9.8
		c0.3,0,0.6,0.1,0.8,0.3c0.2,0.2,0.3,0.5,0.3,0.8v10.6c0,0.3-0.1,0.6-0.3,0.8c-0.2,0.2-0.5,0.3-0.8,0.3h-9.8c-0.3,0-0.4,0.1-0.4,0.4
		V54c0,0.3,0.1,0.4,0.4,0.4h18c0.3,0,0.5,0.1,0.8,0.3c0.2,0.2,0.3,0.5,0.3,0.8v10.5c0,0.3-0.1,0.6-0.3,0.8c-0.2,0.2-0.5,0.3-0.8,0.3
		H172c-0.3,0-0.6-0.1-0.8-0.3c-0.2-0.2-0.3-0.5-0.3-0.8V5.7c0-0.3,0.1-0.5,0.3-0.8c0.2-0.2,0.5-0.3,0.8-0.3h32.2
		c0.3,0,0.5,0.1,0.8,0.3c0.2,0.2,0.3,0.5,0.3,0.8v10.5C205.2,16.6,205.1,16.8,204.9,17z"/>
	<path class="st0" d="M233.4,66.3l-6.1-23.7c-0.1-0.2-0.2-0.4-0.4-0.4h-1.3c-0.3,0-0.4,0.1-0.4,0.4v23.4c0,0.3-0.1,0.6-0.3,0.8
		c-0.2,0.2-0.5,0.3-0.8,0.3h-12.7c-0.3,0-0.6-0.1-0.8-0.3c-0.2-0.2-0.3-0.5-0.3-0.8V5.7c0-0.3,0.1-0.5,0.3-0.8
		c0.2-0.2,0.5-0.3,0.8-0.3h19.2c3.5,0,6.5,0.8,9.2,2.5c2.7,1.6,4.7,3.9,6.2,6.9c1.5,2.9,2.2,6.3,2.2,10c0,3.3-0.6,6.3-1.8,9
		c-1.2,2.6-2.9,4.8-5.1,6.4c-0.1,0.1-0.2,0.1-0.3,0.2c-0.1,0.1-0.1,0.2,0,0.3l7.7,26l0.1,0.4c0,0.6-0.3,0.9-1,0.9h-13
		C234,67.2,233.6,66.9,233.4,66.3z M225.1,17.8v12.7c0,0.3,0.1,0.4,0.4,0.4h2.5c1.6,0,2.9-0.6,3.8-1.8c1-1.2,1.4-2.8,1.4-4.9
		c0-2.2-0.5-3.9-1.4-5.1c-1-1.2-2.2-1.8-3.8-1.8h-2.5C225.3,17.3,225.1,17.5,225.1,17.8z"/>
	<path class="st0" d="M287.2,17c-0.2,0.2-0.5,0.3-0.8,0.3h-18c-0.3,0-0.4,0.1-0.4,0.4V29c0,0.3,0.1,0.4,0.4,0.4h9.8
		c0.3,0,0.6,0.1,0.8,0.3c0.2,0.2,0.3,0.5,0.3,0.8v10.6c0,0.3-0.1,0.6-0.3,0.8c-0.2,0.2-0.5,0.3-0.8,0.3h-9.8c-0.3,0-0.4,0.1-0.4,0.4
		V54c0,0.3,0.1,0.4,0.4,0.4h18c0.3,0,0.5,0.1,0.8,0.3c0.2,0.2,0.3,0.5,0.3,0.8v10.5c0,0.3-0.1,0.6-0.3,0.8c-0.2,0.2-0.5,0.3-0.8,0.3
		h-32.2c-0.3,0-0.6-0.1-0.8-0.3c-0.2-0.2-0.3-0.5-0.3-0.8V5.7c0-0.3,0.1-0.5,0.3-0.8c0.2-0.2,0.5-0.3,0.8-0.3h32.2
		c0.3,0,0.5,0.1,0.8,0.3c0.2,0.2,0.3,0.5,0.3,0.8v10.5C287.5,16.6,287.4,16.8,287.2,17z"/>
	<path class="st0" d="M318.7,5c0.2-0.2,0.5-0.3,0.8-0.3h12.5c0.3,0,0.6,0.1,0.8,0.3c0.2,0.2,0.3,0.5,0.3,0.8v60.4
		c0,0.3-0.1,0.6-0.3,0.8c-0.2,0.2-0.5,0.3-0.8,0.3h-14.2c-0.7,0-1.1-0.3-1.3-0.9l-8.8-31.1c-0.1-0.2-0.2-0.3-0.3-0.3
		c-0.1,0-0.2,0.1-0.2,0.3l0.2,30.9c0,0.3-0.1,0.6-0.3,0.8c-0.2,0.2-0.5,0.3-0.8,0.3h-12.5c-0.3,0-0.6-0.1-0.8-0.3
		c-0.2-0.2-0.3-0.5-0.3-0.8V5.7c0-0.3,0.1-0.5,0.3-0.8c0.2-0.2,0.5-0.3,0.8-0.3h14c0.7,0,1.1,0.3,1.3,0.9l8.9,31.3
		c0.1,0.2,0.2,0.3,0.3,0.3c0.1,0,0.2-0.1,0.2-0.4l-0.1-31C318.4,5.4,318.5,5.2,318.7,5z"/>
	<path class="st0" d="M342.6,62.9c-3.4-3.3-5.1-7.8-5.1-13.3V22.1c0-5.6,1.7-10,5.1-13.3c3.4-3.3,7.9-4.9,13.6-4.9
		c5.7,0,10.2,1.6,13.6,4.9c3.4,3.3,5.1,7.7,5.1,13.3V23c0,0.3-0.1,0.6-0.3,0.8c-0.2,0.2-0.5,0.3-0.8,0.3l-12.7,0.5
		c-0.7,0-1.1-0.4-1.1-1.1v-2.4c0-1.4-0.4-2.5-1.1-3.3c-0.7-0.8-1.7-1.2-2.9-1.2c-1.1,0-2.1,0.4-2.8,1.2c-0.7,0.8-1.1,1.9-1.1,3.3
		v29.7c0,1.3,0.4,2.4,1.1,3.2c0.7,0.8,1.6,1.2,2.8,1.2c1.2,0,2.1-0.4,2.9-1.2c0.7-0.8,1.1-1.9,1.1-3.2v-2.6c0-0.3,0.1-0.6,0.3-0.8
		c0.2-0.2,0.5-0.3,0.8-0.3l12.7,0.5c0.3,0,0.5,0.1,0.8,0.3c0.2,0.2,0.3,0.5,0.3,0.8v0.8c0,5.5-1.7,10-5.1,13.3c-3.4,3.3-8,5-13.6,5
		C350.6,67.9,346,66.2,342.6,62.9z"/>
	<path class="st0" d="M384.7,62.9c-3.4-3.3-5.1-7.8-5.1-13.5v-27c0-5.6,1.7-10.1,5.1-13.4c3.4-3.4,8-5,13.8-5c5.7,0,10.3,1.7,13.8,5
		c3.5,3.4,5.2,7.8,5.2,13.4v27c0,5.7-1.7,10.2-5.2,13.5c-3.5,3.3-8.1,5-13.8,5C392.7,67.9,388.1,66.2,384.7,62.9z M401.5,53.8
		c0.7-0.9,1.1-2.2,1.1-3.8V21.8c0-1.6-0.4-2.9-1.1-3.8c-0.7-0.9-1.8-1.4-3.1-1.4c-1.3,0-2.3,0.5-3,1.4c-0.7,0.9-1.1,2.2-1.1,3.8V50
		c0,1.6,0.4,2.9,1.1,3.8c0.7,0.9,1.7,1.4,3,1.4C399.8,55.2,400.8,54.7,401.5,53.8z"/>
	<path class="st0" d="M430.9,65.8c-2.7-1.4-4.9-3.4-6.4-5.9c-1.5-2.5-2.3-5.4-2.3-8.6v-2.8c0-0.3,0.1-0.6,0.3-0.8
		c0.2-0.2,0.5-0.3,0.8-0.3h12.5c0.3,0,0.6,0.1,0.8,0.3c0.2,0.2,0.3,0.5,0.3,0.8v2.1c0,1.4,0.3,2.6,1,3.4c0.7,0.8,1.6,1.3,2.6,1.3
		s2-0.4,2.6-1.2c0.7-0.8,1-1.8,1-3.1c0-1.4-0.5-2.6-1.6-3.7c-1.1-1.1-3.2-2.8-6.4-5.1c-3-2.1-5.4-4.1-7.3-5.8
		c-1.9-1.7-3.5-3.8-4.9-6.3c-1.4-2.5-2.1-5.5-2.1-8.8c0-3.4,0.8-6.4,2.3-9c1.5-2.6,3.7-4.6,6.4-6.1c2.8-1.4,5.9-2.1,9.5-2.1
		c3.6,0,6.8,0.7,9.6,2.2c2.8,1.5,4.9,3.5,6.4,6.2c1.5,2.6,2.3,5.7,2.3,9.2v2.1c0,0.3-0.1,0.6-0.3,0.8c-0.2,0.2-0.5,0.3-0.8,0.3
		h-12.4c-0.3,0-0.6-0.1-0.8-0.3c-0.2-0.2-0.3-0.5-0.3-0.8v-2.5c0-1.3-0.4-2.4-1.1-3.2c-0.7-0.8-1.6-1.3-2.7-1.3s-1.9,0.4-2.6,1.3
		c-0.7,0.8-1,1.9-1,3.3c0,1.5,0.5,2.8,1.5,4c1,1.2,3.1,2.9,6.2,5.2c3.8,2.8,6.6,5.1,8.5,6.8c1.9,1.7,3.4,3.6,4.5,5.8
		c1.1,2.1,1.6,4.6,1.6,7.5c0,5.4-1.7,9.6-5,12.8c-3.4,3.2-7.8,4.7-13.3,4.7C436.8,67.9,433.6,67.2,430.9,65.8z"/>
</g>
</svg>
