<?xml version="1.0" encoding="utf-8"?>
<!-- Generator: Adobe Illustrator 23.0.6, SVG Export Plug-In . SVG Version: 6.00 Build 0)  -->
<svg version="1.1" id="Ebene_1" xmlns="http://www.w3.org/2000/svg" xmlns:xlink="http://www.w3.org/1999/xlink" x="0px" y="0px"
	 viewBox="0 0 155 943" style="enable-background:new 0 0 155 943;" xml:space="preserve">
<style type="text/css">
	.st0{fill:none;stroke:#FFFFFF;stroke-miterlimit:10;}
	.st1{fill:#FFFFFF;}
</style>
<g>
	<g>
		<path class="st0" d="M79.7,5.2l22.2,45.5c22,45,19.5,98.2-6.6,141l-68.2,112c-29.8,49-28.5,110.8,3.4,158.4l94,140.3
			c28.9,43.2,32.9,98.4,10.5,145.3l-28.4,59.5c-19.2,40.1-19.1,86.7-0.1,126.6"/>
		<g>
			<path class="st1" d="M76.4,7c-0.9-1.9-0.1-4.1,1.7-5s4.1-0.1,5,1.7c0.9,1.9,0.1,4.1-1.7,5S77.3,8.9,76.4,7z"/>
		</g>
		<g>
			<path class="st1" d="M105.7,932.1l2.2-3.6l0.1,0.1l0.5,6.3c0.5,2,1,4.1,1.5,6.1c-1.3-1.6-2.6-3.3-4-4.9l-4.7-4.2l0-0.1
				L105.7,932.1z"/>
		</g>
	</g>
</g>
</svg>
