<?xml version="1.0" encoding="utf-8"?>
<!-- Generator: Adobe Illustrator 23.0.6, SVG Export Plug-In . SVG Version: 6.00 Build 0)  -->
<svg version="1.1" id="Ebene_1" xmlns="http://www.w3.org/2000/svg" xmlns:xlink="http://www.w3.org/1999/xlink" x="0px" y="0px"
	 viewBox="0 0 44 38" style="enable-background:new 0 0 44 38;" xml:space="preserve">
<style type="text/css">
	.st0{fill:#A093FF;}
</style>
<g>
	<g>
		<path class="st0" d="M35.1,3.6c-3.8,1.8-6.7,4.2-8.6,7.3s-2.9,6.6-2.9,10.4c0,1.8,0.2,3.5,0.7,5.1s1.1,3,1.8,4.1
			c1.6,2.5,4.3,3.8,7.7,3.8c2.6,0,4.8-0.8,6.5-2.4s2.5-3.6,2.5-6.1c0-2.6-0.8-4.7-2.4-6.2c-1.6-1.5-3.7-2.3-6.3-2.3
			s-4.8,0.8-6.4,2.6c-0.2-0.7-0.3-1.4-0.3-2.1c0-0.8,0.1-1.6,0.3-2.5c0.3-1.9,1.2-3.8,2.8-5.6c1.6-1.9,3.5-3.2,5.6-4.1L35.1,3.6
			L35.1,3.6z M12.6,3.7C8.7,5.5,5.8,8,3.9,11S1,17.5,1,21.3c0,1.8,0.2,3.5,0.6,5.1c0.5,1.6,1.1,3,1.8,4.1c1.6,2.5,4.2,3.8,7.9,3.9
			c2.6,0,4.8-0.8,6.5-2.4c1.7-1.6,2.5-3.6,2.5-6.1c0-2.6-0.8-4.7-2.4-6.2s-3.7-2.3-6.3-2.3c-2.7,0-4.8,0.8-6.4,2.6
			c-0.2-0.7-0.3-1.4-0.3-2.1c0-0.8,0.1-1.6,0.3-2.5c0.3-1.9,1.2-3.8,2.8-5.6c1.6-1.9,3.5-3.2,5.6-4.1L12.6,3.7L12.6,3.7z"/>
	</g>
</g>
</svg>
